<?xml version="1.0" standalone="no"?>
<!DOCTYPE svg PUBLIC "-//W3C//DTD SVG 20010904//EN"
 "http://www.w3.org/TR/2001/REC-SVG-20010904/DTD/svg10.dtd">
<svg version="1.0" xmlns="http://www.w3.org/2000/svg"
 width="500.000000pt" height="500.000000pt" viewBox="0 0 500.000000 500.000000"
 preserveAspectRatio="xMidYMid meet">

<g transform="translate(0.000000,500.000000) scale(0.100000,-0.100000)"
fill="#000000" stroke="none">
<path d="M2490 3735 c-113 -19 -174 -34 -263 -67 -224 -82 -452 -246 -555
-400 l-25 -38 -81 0 c-90 0 -152 -16 -228 -57 -32 -17 -53 -24 -55 -17 -9 27
-56 80 -103 115 -121 91 -280 93 -413 5 -66 -44 -104 -96 -133 -184 -22 -65
-24 -67 -74 -84 -103 -35 -173 -123 -186 -234 -10 -86 54 -210 130 -251 18
-10 18 -14 1 -124 -23 -159 -29 -293 -16 -364 26 -140 110 -256 231 -320 84
-43 174 -55 255 -32 28 8 57 16 65 18 10 3 16 -9 21 -46 21 -158 127 -304 272
-374 123 -61 82 -60 852 -16 138 8 376 21 530 30 659 36 637 34 725 68 149 56
266 196 299 358 l12 56 77 5 c92 5 156 33 207 90 36 39 78 115 89 160 5 22 13
28 44 33 142 23 239 109 279 244 20 71 12 159 -21 235 l-26 57 21 22 c36 39
87 154 99 225 21 116 -16 252 -95 348 -38 46 -135 100 -197 110 -31 5 -42 14
-63 50 -28 47 -65 79 -135 115 -37 19 -61 23 -135 23 -77 1 -98 -3 -146 -25
-31 -15 -74 -43 -96 -63 l-40 -36 -46 45 c-181 173 -431 291 -690 325 -102 13
-292 11 -387 -5z m415 -202 c145 -28 286 -88 405 -171 113 -80 276 -249 258
-268 -2 -2 -56 -4 -119 -5 l-114 -2 -42 40 c-23 23 -57 52 -75 66 -42 32 -201
112 -253 127 -178 52 -436 54 -550 5 -16 -8 -43 -17 -60 -21 -42 -10 -175 -74
-175 -84 0 -5 -9 -12 -20 -15 -11 -3 -55 -41 -97 -83 l-78 -76 -109 -4 -109
-4 23 38 c159 267 466 447 810 477 72 7 219 -3 305 -20z m-23 -244 c109 -28
252 -95 330 -156 l63 -48 -71 -3 c-67 -3 -74 -1 -140 38 -38 22 -105 53 -149
67 -72 24 -94 27 -230 27 -138 0 -156 -2 -223 -27 -77 -27 -123 -53 -182 -98
-29 -22 -49 -28 -112 -32 -43 -3 -78 -2 -78 3 0 14 106 104 165 139 78 47 220
99 302 110 95 13 226 5 325 -20z m1046 0 c17 -6 38 -21 47 -35 l15 -24 -55 0
c-62 0 -119 -20 -148 -51 -17 -19 -21 -19 -35 -6 -13 14 -13 19 4 48 19 33 92
79 124 79 9 0 31 -5 48 -11z m-2919 -164 c23 -14 28 -73 15 -199 -8 -72 -11
-132 -9 -134 3 -3 57 30 120 72 143 96 165 104 211 82 19 -9 39 -27 45 -40 28
-60 -17 -113 -184 -219 l-106 -67 22 -48 c12 -26 50 -99 83 -162 141 -264 143
-274 82 -325 -64 -54 -147 -24 -193 71 -38 81 -98 210 -120 262 -18 41 -35 55
-35 30 0 -7 -7 -71 -15 -142 -17 -145 -34 -184 -89 -210 -40 -19 -47 -19 -80
-5 -44 20 -49 52 -32 200 83 706 91 755 137 813 32 40 102 50 148 21z m3221
-34 c19 -10 48 -37 65 -60 25 -36 30 -54 33 -116 4 -66 1 -81 -26 -137 -29
-64 -63 -106 -97 -125 -18 -10 -17 -16 18 -136 20 -68 37 -137 37 -152 0 -35
-58 -95 -93 -95 -53 0 -76 36 -113 175 -36 137 -57 178 -93 183 -32 5 -49 -14
-55 -61 -3 -23 -10 -85 -16 -137 -7 -52 -19 -110 -27 -127 -35 -74 -137 -96
-163 -34 -12 30 -13 21 35 471 26 241 31 268 60 305 31 41 66 53 200 64 121
11 189 6 235 -18z m-2626 -52 c35 -27 34 -63 -3 -100 -35 -34 -59 -36 -95 -8
-52 41 -22 129 45 129 14 0 38 -9 53 -21z m1251 -108 c163 -73 235 -229 194
-423 -33 -153 -135 -267 -283 -314 -87 -27 -373 -52 -406 -34 -31 17 -33 48
-16 222 9 90 24 230 32 312 15 158 27 192 74 227 35 26 118 38 245 35 88 -2
120 -7 160 -25z m780 -6 c31 -30 32 -66 2 -101 -26 -30 -80 -42 -202 -43 -38
-1 -75 -5 -81 -9 -13 -9 -26 -109 -15 -116 5 -3 48 -1 97 5 100 11 135 3 152
-37 13 -28 4 -61 -26 -87 -15 -14 -48 -21 -134 -29 -62 -5 -115 -12 -117 -14
-2 -2 -6 -29 -9 -60 l-5 -56 126 7 126 7 25 -25 c30 -30 32 -47 11 -86 -21
-41 -52 -49 -224 -61 -189 -13 -203 -9 -235 64 -22 50 -22 54 -10 176 8 69 18
177 24 240 19 197 43 225 211 239 57 4 139 9 182 10 70 1 80 -1 102 -24z
m-1687 -30 c20 -16 49 -67 83 -145 30 -66 57 -120 60 -120 4 0 10 35 14 78 9
104 22 150 50 178 34 33 87 33 122 -2 29 -29 29 -24 -1 -299 -8 -71 -20 -177
-26 -235 -13 -116 -29 -153 -80 -187 -42 -29 -73 -29 -101 0 -27 28 -47 73
-109 254 -28 81 -55 152 -59 156 -5 5 -12 -18 -15 -50 -27 -235 -39 -311 -54
-337 -40 -68 -117 -91 -155 -45 -15 19 -18 33 -13 69 3 25 13 110 21 190 34
337 43 397 65 439 40 80 138 107 198 56z m-348 -60 c23 -25 23 -25 11 -132 -7
-60 -18 -169 -26 -243 -20 -194 -33 -278 -46 -298 -18 -28 -72 -62 -100 -62
-35 0 -66 25 -72 57 -3 15 -1 66 4 113 34 323 52 460 65 497 31 85 115 120
164 68z m-903 -10 c44 -31 36 -134 -10 -143 -29 -6 -85 36 -92 68 -14 64 51
111 102 75z m3141 -687 c3 -23 8 -28 30 -28 48 0 62 -21 49 -72 -9 -33 -52
-58 -102 -58 -87 0 -94 30 -40 178 3 8 16 12 32 10 22 -2 29 -9 31 -30z m-413
-54 c22 -11 54 -40 70 -63 30 -42 30 -44 29 -169 0 -110 -4 -134 -24 -181 -27
-61 -97 -124 -158 -141 -43 -12 -607 -47 -1377 -85 -159 -8 -322 -18 -361 -21
-125 -11 -223 31 -278 119 -27 45 -30 55 -28 136 2 147 27 227 87 280 57 50
112 59 440 76 165 8 390 19 500 25 192 9 414 22 705 40 225 13 348 9 395 -16z
m-2465 -64 c4 -28 10 -36 30 -38 61 -8 57 -81 -4 -82 -10 0 -29 -11 -42 -25
-29 -31 -41 -31 -55 -1 -7 14 -23 26 -39 30 -52 10 -51 76 1 76 25 0 30 5 39
41 10 36 14 40 38 37 22 -2 28 -9 32 -38z"/>
<path d="M3962 2942 c-14 -14 -21 -41 -25 -97 -4 -44 -4 -82 0 -86 11 -10 125
6 158 22 63 31 90 107 55 152 -20 25 -27 27 -96 27 -59 0 -78 -4 -92 -18z"/>
<path d="M2591 2791 c-10 -6 -19 -63 -32 -187 -10 -99 -20 -200 -23 -226 l-5
-48 45 0 c170 0 288 102 289 250 0 124 -79 211 -198 217 -34 2 -68 0 -76 -6z"/>
<path d="M3182 1961 c-23 -4 -46 -12 -51 -17 -14 -14 -29 -175 -20 -214 9 -40
32 -60 69 -60 40 0 89 20 100 40 15 28 -7 39 -61 33 -48 -6 -49 -5 -49 21 0
24 4 26 38 26 47 0 78 20 68 45 -5 15 -14 17 -56 11 l-50 -7 0 31 c0 29 2 30
43 30 24 0 48 5 55 12 17 17 15 45 -4 52 -17 7 -20 7 -82 -3z"/>
<path d="M2765 1931 c-37 -8 -43 -28 -44 -152 -1 -77 2 -99 15 -110 14 -11 18
-10 30 6 8 10 14 30 14 43 0 13 3 22 8 20 4 -2 32 -16 63 -32 32 -16 64 -26
73 -23 28 11 18 44 -19 67 l-35 22 30 28 c20 19 30 37 30 57 -1 67 -64 96
-165 74z m89 -47 c9 -3 16 -10 16 -14 0 -10 -38 -35 -67 -44 -20 -6 -23 -4
-23 18 0 35 36 55 74 40z"/>
<path d="M2363 1900 c-123 -75 -80 -250 62 -250 59 0 125 78 125 148 0 60 -67
122 -132 122 -13 0 -37 -9 -55 -20z m91 -71 c32 -25 33 -47 5 -83 -28 -36 -77
-33 -98 6 -14 24 -14 30 2 62 20 42 50 47 91 15z"/>
<path d="M1930 1891 c-37 -10 -33 -43 6 -54 34 -10 44 -36 44 -124 0 -56 8
-73 35 -73 30 0 36 25 24 103 -14 97 -14 97 25 97 37 0 62 21 52 45 -4 12 -22
15 -83 14 -43 -1 -89 -4 -103 -8z"/>
<path d="M1590 1873 c-33 -22 -40 -33 -40 -64 0 -30 31 -62 83 -84 50 -21 49
-39 -2 -31 -50 8 -71 -12 -51 -49 15 -29 43 -37 93 -26 50 12 67 28 67 63 0
42 -24 72 -80 98 -28 13 -50 27 -50 31 0 17 43 31 76 24 30 -5 34 -3 34 14 0
41 -84 56 -130 24z"/>
</g>
</svg>
